<svg xmlns="http://www.w3.org/2000/svg" viewBox="0 0 500 500"><g id="freepik--background-complete--inject-72"><rect x="412.73" y="90.4" width="27.38" height="11.57" transform="translate(852.83 192.36) rotate(180)" style="fill:#dbdbdb"></rect><rect x="428" y="75.81" width="27.38" height="11.57" transform="translate(883.37 163.19) rotate(180)" style="fill:#ebebeb"></rect><rect x="44.63" y="73.43" width="27.38" height="11.57" transform="translate(116.63 158.43) rotate(180)" style="fill:#dbdbdb"></rect><rect x="59.9" y="288.5" width="27.38" height="11.57" transform="translate(147.17 588.57) rotate(180)" style="fill:#ebebeb"></rect><rect x="194.52" y="34.93" width="27.38" height="11.57" transform="translate(416.41 81.43) rotate(180)" style="fill:#ebebeb"></rect><rect x="75.15" y="388.7" width="27.38" height="11.57" transform="translate(177.68 788.98) rotate(180)" style="fill:#dbdbdb"></rect><rect x="44.63" y="273.92" width="27.38" height="11.57" transform="translate(116.63 559.4) rotate(180)" style="fill:#ebebeb"></rect><rect x="392.62" y="432.12" width="27.38" height="11.57" transform="translate(812.62 875.8) rotate(180)" style="fill:#ebebeb"></rect><rect x="392.62" y="403.09" width="27.38" height="11.57" transform="translate(812.62 817.75) rotate(180)" style="fill:#ebebeb"></rect><rect x="377.37" y="417.53" width="27.38" height="11.57" transform="translate(782.11 846.63) rotate(180)" style="fill:#ebebeb"></rect><rect x="407.87" y="417.53" width="27.38" height="11.57" transform="translate(843.12 846.63) rotate(180)" style="fill:#dbdbdb"></rect><rect x="59.9" y="403.09" width="27.38" height="11.57" transform="translate(147.17 817.75) rotate(180)" style="fill:#ebebeb"></rect><rect x="75.15" y="417.53" width="27.38" height="11.57" transform="translate(177.68 846.63) rotate(180)" style="fill:#ebebeb"></rect><rect x="423.12" y="432.12" width="27.38" height="11.57" transform="translate(873.62 875.8) rotate(180)" style="fill:#ebebeb"></rect><rect x="436.38" y="288.5" width="27.38" height="11.57" transform="translate(900.14 588.57) rotate(180)" style="fill:#ebebeb"></rect><path d="M46.85,342a108.83,108.83,0,0,1-5.27-15,104.51,104.51,0,0,1-3.1-15.58,81.8,81.8,0,0,1-.42-15.88l.43-4c.18-1.32.42-2.62.63-3.93s.48-2.61.73-3.91.53-2.6.82-3.89c2.28-10.36,5.58-20.45,8.57-30.59,1.48-5.07,2.86-10.16,3.85-15.33.22-1.29.51-2.58.66-3.88a34.7,34.7,0,0,0,.43-3.9,26.43,26.43,0,0,0,.07-3.88,36.17,36.17,0,0,0-.3-3.9A103.61,103.61,0,0,0,50.8,203c-1.37-5.1-2.9-10.16-4.41-15.23s-3-10.19-4.16-15.37A76.06,76.06,0,0,1,40,156.47a73.29,73.29,0,0,1,1.92-15.93c1.13-5.21,2.56-10.33,4-15.43,3-10.17,6.27-20.24,8.83-30.44a108.14,108.14,0,0,0,2.82-15.42A37.37,37.37,0,0,0,56,64.07a28.93,28.93,0,0,0-3.26-6.85,20.67,20.67,0,0,0-5-5.44,10.79,10.79,0,0,0-3.14-1.62,4.93,4.93,0,0,0-3.08,0,3.23,3.23,0,0,0-1.18.76,4.7,4.7,0,0,0-.82,1.27,6.06,6.06,0,0,0-.44,3.19,8.25,8.25,0,0,0,3.7,5.54,16.74,16.74,0,0,0,6.83,2.56,32.65,32.65,0,0,0,7.6.29c1.29-.06,2.57-.25,3.85-.4s2.55-.4,3.82-.7a95.75,95.75,0,0,0,15-4.57c2.44-1,4.86-2,7.25-3.06s4.69-2.24,7.19-3.34a74,74,0,0,1,15.29-5.14,76.69,76.69,0,0,1,16-1.69c10.78,0,21.39,2.1,31.64,4.93s20.26,6.39,30.34,9.45,20.3,5.63,30.7,6.2c1.29.08,2.59.08,3.89.13s2.62,0,3.93-.06,2.62,0,3.93-.09l3.93-.22c5.25-.29,10.49-.82,15.72-1.42,10.47-1.23,20.89-3,31.33-4.68s20.9-3.47,31.47-4.69c2.64-.31,5.29-.52,7.94-.78l4-.25c1.32-.09,2.66-.17,4-.18a111.43,111.43,0,0,1,16,.54c21.33,2.17,41.56,9.12,62.21,13,10.31,1.93,20.85,3.07,31.15,1.66a53.31,53.31,0,0,0,14.88-4.2c1.15-.58,2.35-1.11,3.46-1.73.54-.33,1.11-.62,1.6-1l.77-.53.71-.58c1.89-1.52,3.27-3.69,2.94-5.72s-2.45-3.57-4.72-3.76A8.25,8.25,0,0,0,451,53.16a15.33,15.33,0,0,0-4,6.15,17.24,17.24,0,0,0-1.21,7.33c.26,5,2.72,9.77,5.54,14.11s6.16,8.5,9.33,12.76a83.13,83.13,0,0,1,8.55,13.56,37.6,37.6,0,0,1,2.73,7.62,30.55,30.55,0,0,1,.68,4,15.26,15.26,0,0,1,.11,2l0,2A55.62,55.62,0,0,1,470,138.58a150.8,150.8,0,0,1-5.75,14.87c-2.08,4.87-4.27,9.68-6.13,14.61a95.13,95.13,0,0,0-4.51,15.09,69.86,69.86,0,0,0,1.95,31.17c.79,2.51,1.72,5,2.74,7.42s2.05,4.88,2.84,7.43a24.26,24.26,0,0,1,1.22,7.88,59.89,59.89,0,0,1-.68,7.93c-.73,5.25-1.86,10.43-3,15.59l-1.75,7.74a49.48,49.48,0,0,0-1.25,7.83,49.43,49.43,0,0,1,1.16-7.84l1.66-7.77c1.1-5.17,2.17-10.36,2.84-15.6a61.17,61.17,0,0,0,.58-7.88,23.84,23.84,0,0,0-1.28-7.71c-1.67-5-4.18-9.7-5.76-14.79a66.25,66.25,0,0,1-3-15.66,65.51,65.51,0,0,1,.63-15.94,95.36,95.36,0,0,1,4.39-15.34c1.82-5,4-9.85,6-14.73s4.07-9.75,5.58-14.77a53.49,53.49,0,0,0,2.61-15.35,31.57,31.57,0,0,0-3.48-14.92,80.63,80.63,0,0,0-8.45-13.19c-3.17-4.22-6.52-8.34-9.49-12.81a46.78,46.78,0,0,1-3.93-7.08,23.7,23.7,0,0,1-2-8A19.6,19.6,0,0,1,445,58.55a17.57,17.57,0,0,1,4.55-7,10.53,10.53,0,0,1,8.11-2.86,8.35,8.35,0,0,1,4.23,1.63,6.58,6.58,0,0,1,2.52,4,7,7,0,0,1-.86,4.58,11.76,11.76,0,0,1-2.81,3.34l-.82.68-.86.6a18.45,18.45,0,0,1-1.77,1.1c-1.2.68-2.42,1.23-3.63,1.85a55.11,55.11,0,0,1-15.53,4.49c-10.72,1.52-21.53.33-32-1.59s-20.73-4.69-31-7.15a232.55,232.55,0,0,0-31-5.74,107.86,107.86,0,0,0-15.67-.48c-1.31,0-2.62.09-3.93.18l-3.92.25c-2.62.26-5.24.48-7.85.79-10.46,1.23-20.88,3-31.32,4.73s-20.9,3.51-31.45,4.77a209.48,209.48,0,0,1-31.92,1.75c-10.78-.63-21.23-3.3-31.38-6.4s-20.12-6.67-30.25-9.49-20.46-4.9-30.88-4.89a73.71,73.71,0,0,0-15.47,1.58,72.35,72.35,0,0,0-14.74,4.93c-2.36,1-4.79,2.27-7.21,3.33s-4.9,2.12-7.39,3.1a100,100,0,0,1-15.38,4.67c-1.31.3-2.66.48-4,.71s-2.68.35-4,.41A35.38,35.38,0,0,1,49.14,66a19.2,19.2,0,0,1-7.88-3,10.79,10.79,0,0,1-4.78-7.34,8.58,8.58,0,0,1,.65-4.57,7.3,7.3,0,0,1,1.34-2,6,6,0,0,1,2.13-1.37,7.43,7.43,0,0,1,4.71,0,13.37,13.37,0,0,1,3.89,2,23.28,23.28,0,0,1,5.68,6.13,30.67,30.67,0,0,1,3.52,7.46A39.8,39.8,0,0,1,60,79.46a107.83,107.83,0,0,1-3,15.77c-2.66,10.31-6,20.35-9,30.47C46.49,130.77,45,135.84,43.88,141a71.08,71.08,0,0,0-2,15.5A74.59,74.59,0,0,0,44,172c1.16,5.12,2.57,10.21,4,15.29s3,10.16,4.32,15.29a103.38,103.38,0,0,1,3.08,15.67,38.56,38.56,0,0,1,.25,4,28.56,28.56,0,0,1-.11,4,37.48,37.48,0,0,1-.49,4c-.17,1.32-.48,2.62-.72,3.93-1.06,5.22-2.51,10.33-4.05,15.4-3.11,10.12-6.52,20.14-8.91,30.43-.31,1.29-.61,2.57-.86,3.87s-.56,2.58-.77,3.88-.48,2.6-.67,3.9l-.48,3.93a82.5,82.5,0,0,0,.24,15.79A104.39,104.39,0,0,0,41.75,327,107.39,107.39,0,0,0,46.85,342Z" style="fill:#ebebeb"></path><path d="M45.62,327c1.28-9.86,2.21-19.77,2.6-29.69a147.88,147.88,0,0,0-.08-14.89,144.41,144.41,0,0,0-1.9-14.77c-1.69-9.78-3.71-19.54-4.59-29.48a118.38,118.38,0,0,1-.48-14.95,110.66,110.66,0,0,1,1.62-14.87c1.74-9.83,4.34-19.44,5.81-29.24.76-4.89,1.28-9.82,1.57-14.76a103.17,103.17,0,0,0-.29-14.81C49,139.68,46.72,130,45,120.18a89.72,89.72,0,0,1-1.47-14.94,47.93,47.93,0,0,1,.53-7.55,32.94,32.94,0,0,1,2.11-7.32A34.53,34.53,0,0,1,50,83.76c1.46-2.06,3.1-4,4.69-5.86A40.23,40.23,0,0,0,59,72,15.65,15.65,0,0,0,61,65.3a13.29,13.29,0,0,0-1.36-6.8,11.56,11.56,0,0,0-4.68-5,6.69,6.69,0,0,0-3.15-.86,4,4,0,0,0-2.8,1.1c-1.55,1.43-1.75,3.93-.95,6a11.39,11.39,0,0,0,4.25,5.33,17.12,17.12,0,0,0,6.5,2.69,25.74,25.74,0,0,0,7.18.28,71.24,71.24,0,0,0,7.25-1.22c9.66-2.11,19.26-4.77,28.91-7.18s19.32-4.77,29.1-6.73a249.35,249.35,0,0,1,29.61-4.31,127.39,127.39,0,0,1,15-.31c5,.19,10,.62,14.93,1.16,9.91,1.08,19.76,2.59,29.57,4.22,19.63,3.27,39.15,7.13,58.8,9.9,9.82,1.33,19.68,2.45,29.57,2.3a288.63,288.63,0,0,0,29.66-1.83c9.86-1.08,19.67-2.61,29.49-4.16,4.91-.77,9.82-1.54,14.77-2.18a126.25,126.25,0,0,1,15-1.23,64.45,64.45,0,0,1,15,1.62A119.67,119.67,0,0,1,427,62.45c4.7,1.68,9.31,3.53,14,5s9.61,2.48,14.2,1.12a8.64,8.64,0,0,0,5.39-3.92,4.85,4.85,0,0,0,.57-3.12A3.78,3.78,0,0,0,459.54,59a5.33,5.33,0,0,0-3.13-.79,8.18,8.18,0,0,0-3.29.84,11.87,11.87,0,0,0-5,4.81,15.09,15.09,0,0,0-1.93,6.8,19.42,19.42,0,0,0,1.08,7.09,120.84,120.84,0,0,0,5.87,13.59c2.14,4.49,4.33,9,6.18,13.62a58.6,58.6,0,0,1,2.38,7.14,31.2,31.2,0,0,1,.7,3.74,21.22,21.22,0,0,1,.07,3.82A107.24,107.24,0,0,1,460,134.4c-1.05,4.86-2.15,9.71-3.15,14.57s-1.88,9.74-2.45,14.66a73.35,73.35,0,0,0-.38,14.81A78.13,78.13,0,0,0,456.8,193a88.51,88.51,0,0,1,3.05,14.62c1,10-.74,20-3.12,29.57a41.58,41.58,0,0,0,0,14.8,78,78,0,0,0,3.71,14.41A77.92,77.92,0,0,1,456.58,252a41.51,41.51,0,0,1-.09-14.87,126.06,126.06,0,0,0,2.71-14.64,64.53,64.53,0,0,0,.16-14.83,88.58,88.58,0,0,0-3.15-14.51,79.18,79.18,0,0,1-2.89-14.67,74.78,74.78,0,0,1,.26-15c.54-5,1.39-9.88,2.35-14.76S458,139,459,134.18a108.14,108.14,0,0,0,2.36-14.63,19.87,19.87,0,0,0-.08-3.62,29.36,29.36,0,0,0-.69-3.58,58.62,58.62,0,0,0-2.36-7c-1.85-4.58-4.05-9-6.21-13.5a122,122,0,0,1-6-13.74,20.6,20.6,0,0,1-1.18-7.57,16.33,16.33,0,0,1,2.08-7.42,13.21,13.21,0,0,1,5.56-5.42,9.61,9.61,0,0,1,3.88-1,6.77,6.77,0,0,1,4,1,5.28,5.28,0,0,1,2.29,3.53,6.38,6.38,0,0,1-.7,4.08,8.76,8.76,0,0,1-2.71,3A12.59,12.59,0,0,1,455.66,70a19.26,19.26,0,0,1-7.69.57A41.93,41.93,0,0,1,440.55,69c-4.8-1.46-9.43-3.3-14.11-4.94a118.25,118.25,0,0,0-14.18-4.23,62.94,62.94,0,0,0-14.59-1.56,126.29,126.29,0,0,0-14.75,1.24c-4.91.64-9.82,1.42-14.73,2.2-9.81,1.56-19.66,3.11-29.56,4.21a291.86,291.86,0,0,1-29.85,1.89c-10,.17-20-1-29.84-2.27-19.74-2.76-39.27-6.58-58.86-9.83-9.8-1.65-19.61-3.17-29.46-4.26A152.59,152.59,0,0,0,161,50.55a245.87,245.87,0,0,0-29.39,4.23c-9.73,1.93-19.39,4.24-29,6.66s-19.22,5-29,7.16a70.13,70.13,0,0,1-7.45,1.23,26.7,26.7,0,0,1-7.67-.31,18.79,18.79,0,0,1-7.17-3,13,13,0,0,1-4.87-6.17A8.68,8.68,0,0,1,46,56.3a6.3,6.3,0,0,1,1.88-3.78,5.85,5.85,0,0,1,1.84-1.18A6.31,6.31,0,0,1,51.83,51a8.53,8.53,0,0,1,4,1.07,13.31,13.31,0,0,1,5.38,5.72,15,15,0,0,1,1.49,7.66,16.94,16.94,0,0,1-2.31,7.41,41.21,41.21,0,0,1-4.51,6.11c-1.61,1.9-3.22,3.76-4.65,5.74A33.85,33.85,0,0,0,47.57,91a31.7,31.7,0,0,0-2,7,45.48,45.48,0,0,0-.54,7.3A88.9,88.9,0,0,0,46.39,120c1.66,9.76,4,19.5,4.77,29.48a104.16,104.16,0,0,1,.24,15c-.32,5-.87,10-1.66,14.87-1.54,9.87-4.19,19.48-6,29.23A110.59,110.59,0,0,0,42,223.26a116.89,116.89,0,0,0,.35,14.85c.8,9.89,2.74,19.65,4.35,29.46a142,142,0,0,1,1.79,14.82,148.69,148.69,0,0,1,0,14.93C48,307.25,47,317.15,45.62,327Z" style="fill:#dbdbdb"></path><path d="M457.88,319.94c-1.34-9.85-2.33-19.76-2.79-29.69a145.4,145.4,0,0,1,0-14.91,141.86,141.86,0,0,1,1.81-14.81c1.64-9.8,3.59-19.57,4.41-29.47a119.12,119.12,0,0,0,.39-14.87A111,111,0,0,0,460,201.42c-1.77-9.77-4.4-19.39-5.92-29.24q-1.17-7.38-1.63-14.84a102.05,102.05,0,0,1,.26-14.94c.82-10,3.13-19.67,4.8-29.45a88.38,88.38,0,0,0,1.43-14.77,46.65,46.65,0,0,0-.54-7.38,31.58,31.58,0,0,0-2.06-7.06,33,33,0,0,0-3.67-6.39c-1.43-2-3-3.89-4.66-5.79a41.62,41.62,0,0,1-4.45-6,16.68,16.68,0,0,1-2.24-7.21,14.49,14.49,0,0,1,1.46-7.41,12.76,12.76,0,0,1,5.18-5.51,7.88,7.88,0,0,1,3.73-1,5.94,5.94,0,0,1,1.95.35,5.21,5.21,0,0,1,1.68,1.08A5.81,5.81,0,0,1,457,49.3a8.34,8.34,0,0,1-.47,3.84,12.58,12.58,0,0,1-4.69,5.93,18.25,18.25,0,0,1-7,2.9,26.44,26.44,0,0,1-7.53.31,67.57,67.57,0,0,1-7.4-1.23c-9.74-2.1-19.32-4.75-29-7.15s-19.3-4.73-29-6.67A248.34,248.34,0,0,0,342.51,43a153.43,153.43,0,0,0-29.68.88C303,45,293.14,46.49,283.34,48.13c-19.6,3.26-39.13,7.08-58.84,9.83-9.86,1.32-19.79,2.44-29.78,2.28a290.69,290.69,0,0,1-29.79-1.89c-9.9-1.1-19.73-2.65-29.55-4.21-4.9-.78-9.81-1.56-14.73-2.2a126.94,126.94,0,0,0-14.81-1.24,63.37,63.37,0,0,0-14.71,1.57,117.44,117.44,0,0,0-14.24,4.25c-4.68,1.65-9.3,3.49-14.08,5a42.22,42.22,0,0,1-7.33,1.62A18.87,18.87,0,0,1,48,62.56a12.15,12.15,0,0,1-3.46-1.62,8.25,8.25,0,0,1-2.58-2.86,5.91,5.91,0,0,1-.66-3.81A4.76,4.76,0,0,1,43.38,51a6.31,6.31,0,0,1,3.74-1,9.34,9.34,0,0,1,3.71.95,12.84,12.84,0,0,1,5.4,5.25,15.94,15.94,0,0,1,2,7.25,20.15,20.15,0,0,1-1.15,7.43,119.06,119.06,0,0,1-5.95,13.7C49,89.12,46.82,93.58,45,98.18a57,57,0,0,0-2.37,7,22.52,22.52,0,0,0-.77,7.3,107.93,107.93,0,0,0,2.4,14.66c1,4.86,2.13,9.71,3.1,14.59s1.83,9.79,2.37,14.74a73.67,73.67,0,0,1,.3,14.92,78.42,78.42,0,0,1-2.86,14.65A89.47,89.47,0,0,0,44,200.61a65.28,65.28,0,0,0,.2,14.85A125.37,125.37,0,0,0,47,230.1,41.4,41.4,0,0,1,46.89,245a78.5,78.5,0,0,1-3.79,14.4,78.65,78.65,0,0,0,3.73-14.41,41.41,41.41,0,0,0,0-14.81c-2.36-9.62-4.12-19.6-3.06-29.55A88.45,88.45,0,0,1,46.85,186a79,79,0,0,0,2.78-14.6,74.36,74.36,0,0,0-.35-14.84c-.57-4.93-1.45-9.82-2.43-14.69s-2.08-9.72-3.13-14.58a110.77,110.77,0,0,1-2.43-14.74,21.59,21.59,0,0,1,.08-3.77,30.93,30.93,0,0,1,.7-3.7A59.17,59.17,0,0,1,44.45,98c1.85-4.63,4-9.1,6.19-13.58a120.38,120.38,0,0,0,5.91-13.63,19.62,19.62,0,0,0,1.11-7.22,15.32,15.32,0,0,0-2-7,12.18,12.18,0,0,0-5.14-5,8.51,8.51,0,0,0-3.45-.88,5.78,5.78,0,0,0-3.37.85,4.22,4.22,0,0,0-1.82,2.83,5.32,5.32,0,0,0,.6,3.4,9.09,9.09,0,0,0,5.64,4.14,18.31,18.31,0,0,0,7.26.51,41.59,41.59,0,0,0,7.2-1.61c4.74-1.46,9.36-3.31,14-5A118.34,118.34,0,0,1,91,51.56a64.26,64.26,0,0,1,14.88-1.62,130.14,130.14,0,0,1,14.9,1.23c4.93.64,9.85,1.42,14.76,2.18,9.82,1.55,19.64,3.08,29.51,4.16a289.45,289.45,0,0,0,29.71,1.85c9.92.15,19.81-1,29.64-2.31,19.67-2.77,39.19-6.64,58.81-9.9,9.81-1.63,19.65-3.14,29.55-4.22a153.49,153.49,0,0,1,29.85-.85,249.24,249.24,0,0,1,29.55,4.3c9.76,2,19.43,4.28,29.07,6.72s19.24,5.08,28.93,7.19a70.53,70.53,0,0,0,7.31,1.22,25.58,25.58,0,0,0,7.31-.29,17.42,17.42,0,0,0,6.7-2.76,12,12,0,0,0,4.42-5.57,7.59,7.59,0,0,0,.44-3.49,5.16,5.16,0,0,0-1.51-3.06,4.34,4.34,0,0,0-3.14-1.23,7.17,7.17,0,0,0-3.38.92,12.08,12.08,0,0,0-4.89,5.19,13.81,13.81,0,0,0-1.39,7,15.91,15.91,0,0,0,2.14,6.92,40.33,40.33,0,0,0,4.37,5.94c1.6,1.9,3.23,3.79,4.69,5.84a34.18,34.18,0,0,1,3.73,6.52A32.29,32.29,0,0,1,459,90.7a48.09,48.09,0,0,1,.54,7.48,89.4,89.4,0,0,1-1.45,14.88c-1.7,9.8-4,19.49-4.84,29.39A102.28,102.28,0,0,0,453,157.3q.45,7.44,1.6,14.8c1.49,9.81,4.12,19.42,5.87,29.23a110.27,110.27,0,0,1,1.65,14.84,119.84,119.84,0,0,1-.45,14.92c-.86,9.93-2.85,19.69-4.53,29.48a144.17,144.17,0,0,0-1.87,14.78,148.09,148.09,0,0,0,0,14.9C455.63,300.18,456.58,310.08,457.88,319.94Z" style="fill:#dbdbdb"></path><path d="M456.16,324c-1.34-9.85-2.33-19.76-2.79-29.69a148.3,148.3,0,0,1,0-14.91,141.56,141.56,0,0,1,1.82-14.81c1.63-9.81,3.59-19.57,4.41-29.47a117.23,117.23,0,0,0,.38-14.87,108.1,108.1,0,0,0-1.72-14.78c-1.76-9.76-4.4-19.38-5.91-29.23q-1.17-7.38-1.63-14.84a103.47,103.47,0,0,1,.25-14.94c.83-10,3.14-19.67,4.81-29.45a89.45,89.45,0,0,0,1.43-14.77,46.65,46.65,0,0,0-.54-7.38,31.43,31.43,0,0,0-2.06-7.06,33.35,33.35,0,0,0-3.67-6.4c-1.43-2-3.05-3.88-4.66-5.78a41,41,0,0,1-4.45-6.05,16.59,16.59,0,0,1-2.24-7.2A14.38,14.38,0,0,1,441,55a12.79,12.79,0,0,1,5.17-5.51,8,8,0,0,1,3.74-1,5.94,5.94,0,0,1,1.95.35,5.43,5.43,0,0,1,1.68,1.08,5.79,5.79,0,0,1,1.73,3.49,8.22,8.22,0,0,1-.46,3.84,12.58,12.58,0,0,1-4.69,5.93,18.25,18.25,0,0,1-7,2.9,26.49,26.49,0,0,1-7.54.31,67.79,67.79,0,0,1-7.39-1.23c-9.74-2.1-19.32-4.75-29-7.15s-19.3-4.73-29-6.67a248.34,248.34,0,0,0-29.45-4.24,153.43,153.43,0,0,0-29.68.88c-9.87,1.09-19.69,2.62-29.49,4.26C262,55.45,242.49,59.27,222.78,62c-9.86,1.32-19.8,2.44-29.78,2.27a287.89,287.89,0,0,1-29.79-1.89c-9.9-1.09-19.73-2.64-29.55-4.2-4.91-.78-9.81-1.56-14.73-2.2a126.94,126.94,0,0,0-14.81-1.24,63.31,63.31,0,0,0-14.71,1.57,116.91,116.91,0,0,0-14.24,4.25c-4.68,1.65-9.3,3.49-14.08,5a42.22,42.22,0,0,1-7.33,1.62,18.92,18.92,0,0,1-7.52-.55A12.25,12.25,0,0,1,42.78,65a8.22,8.22,0,0,1-2.57-2.86,5.91,5.91,0,0,1-.66-3.81,4.83,4.83,0,0,1,2.1-3.26,6.4,6.4,0,0,1,3.75-1,9.18,9.18,0,0,1,3.71,1,12.84,12.84,0,0,1,5.4,5.25,15.9,15.9,0,0,1,2,7.25A20.36,20.36,0,0,1,55.4,75a119.89,119.89,0,0,1-6,13.7c-2.15,4.48-4.34,8.94-6.19,13.54a57,57,0,0,0-2.37,7,22.49,22.49,0,0,0-.77,7.3,107.93,107.93,0,0,0,2.4,14.66c1,4.86,2.13,9.71,3.1,14.59s1.83,9.79,2.37,14.74a74.4,74.4,0,0,1,.3,14.92,79.24,79.24,0,0,1-2.86,14.65,89.47,89.47,0,0,0-3.13,14.54,65.86,65.86,0,0,0,.19,14.85,127.52,127.52,0,0,0,2.75,14.64A41.63,41.63,0,0,1,45.17,249a77.73,77.73,0,0,1-3.8,14.4A77.88,77.88,0,0,0,45.11,249a41.64,41.64,0,0,0,0-14.81c-2.36-9.62-4.12-19.6-3.06-29.55a87.43,87.43,0,0,1,3.08-14.59,79,79,0,0,0,2.78-14.6,73.63,73.63,0,0,0-.36-14.84c-.56-4.93-1.44-9.83-2.42-14.69S43,136.2,42,131.34a109.17,109.17,0,0,1-2.43-14.74,20.66,20.66,0,0,1,.08-3.77,29.07,29.07,0,0,1,.7-3.7,57.45,57.45,0,0,1,2.38-7.1c1.85-4.63,4-9.1,6.19-13.58a121.56,121.56,0,0,0,5.91-13.64,20,20,0,0,0,1.11-7.22,15.44,15.44,0,0,0-2-7,12.18,12.18,0,0,0-5.14-5,8.51,8.51,0,0,0-3.45-.88,5.78,5.78,0,0,0-3.37.85,4.16,4.16,0,0,0-1.82,2.83,5.32,5.32,0,0,0,.6,3.4A9,9,0,0,0,46.43,66a18.13,18.13,0,0,0,7.26.52,41.59,41.59,0,0,0,7.2-1.61c4.73-1.46,9.35-3.31,14-5a118.49,118.49,0,0,1,14.32-4.29A64.14,64.14,0,0,1,104.13,54,130.14,130.14,0,0,1,119,55.23c4.93.64,9.85,1.42,14.76,2.18,9.82,1.55,19.64,3.08,29.51,4.16A286.46,286.46,0,0,0,193,63.41c9.92.16,19.8-1,29.64-2.3,19.67-2.77,39.19-6.64,58.81-9.9,9.81-1.63,19.65-3.14,29.55-4.22a153.49,153.49,0,0,1,29.85-.85,249.24,249.24,0,0,1,29.55,4.3c9.76,2,19.43,4.28,29.07,6.72s19.24,5.08,28.93,7.19a70.53,70.53,0,0,0,7.31,1.22,25.58,25.58,0,0,0,7.31-.29,17.33,17.33,0,0,0,6.69-2.77A11.83,11.83,0,0,0,454.15,57a7.46,7.46,0,0,0,.43-3.49,5.09,5.09,0,0,0-1.5-3.06,4.81,4.81,0,0,0-1.44-.93,4.91,4.91,0,0,0-1.7-.3,7.14,7.14,0,0,0-3.38.92,12,12,0,0,0-4.89,5.19,13.68,13.68,0,0,0-1.39,7,15.91,15.91,0,0,0,2.14,6.92,40.33,40.33,0,0,0,4.37,5.94c1.6,1.9,3.23,3.79,4.69,5.83a35.12,35.12,0,0,1,3.73,6.53,32.27,32.27,0,0,1,2.08,7.22,45.76,45.76,0,0,1,.54,7.48,89.17,89.17,0,0,1-1.44,14.87c-1.7,9.81-4,19.5-4.84,29.4a102.25,102.25,0,0,0-.27,14.85c.3,4.95.83,9.89,1.6,14.79,1.49,9.82,4.11,19.43,5.86,29.24a108.69,108.69,0,0,1,1.66,14.84,119.84,119.84,0,0,1-.45,14.92c-.86,9.92-2.86,19.69-4.53,29.48a144.17,144.17,0,0,0-1.87,14.78,147.89,147.89,0,0,0-.06,14.89C453.91,304.24,454.86,314.14,456.16,324Z" style="fill:#ebebeb"></path><path d="M52.1,107.66A23.38,23.38,0,0,1,67.4,95.15s-2,7.87-5.15,10.17C59,107.73,52.1,107.66,52.1,107.66Z" style="fill:#dbdbdb"></path><path d="M48.52,251.51A23.38,23.38,0,0,1,63.82,239s-2,7.87-5.16,10.17S48.52,251.51,48.52,251.51Z" style="fill:#dbdbdb"></path><path d="M47.79,90.89a24.46,24.46,0,0,0-7.23-18.75s-2,7.87-.43,11.47C41.81,87.4,47.79,90.89,47.79,90.89Z" style="fill:#ebebeb"></path><path d="M41.51,148.11A19.35,19.35,0,0,0,25,145.32s4.7,5,8,5.42C36.37,151.14,41.51,148.11,41.51,148.11Z" style="fill:#ebebeb"></path><path d="M48.37,280.72A24.46,24.46,0,0,0,41.14,262s-2,7.87-.43,11.48C42.39,277.23,48.37,280.72,48.37,280.72Z" style="fill:#ebebeb"></path><path d="M48.59,177a23.92,23.92,0,0,1,12-15.94s-.16,8.14-2.66,11.15C55.27,175.39,48.59,177,48.59,177Z" style="fill:#ebebeb"></path><path d="M41.86,227.33a23.92,23.92,0,0,1,12-15.94s-.16,8.14-2.66,11.15C48.55,225.7,41.86,227.33,41.86,227.33Z" style="fill:#ebebeb"></path><path d="M48.83,294.61a13.08,13.08,0,0,1,6.54-8.7s-.09,4.45-1.45,6.09S48.83,294.61,48.83,294.61Z" style="fill:#ebebeb"></path><path d="M41.51,145.38A24,24,0,0,0,30.16,129s-.15,8.15,2.23,11.25C34.89,143.47,41.51,145.38,41.51,145.38Z" style="fill:#dbdbdb"></path><path d="M47.26,188.92a14.46,14.46,0,0,0-10.79-5.27S38.79,188,41,188.89,47.26,188.92,47.26,188.92Z" style="fill:#dbdbdb"></path><path d="M48.43,290.78a16.65,16.65,0,0,0-10.5-9.33s1.22,5.64,3.37,7.36S48.43,290.78,48.43,290.78Z" style="fill:#dbdbdb"></path><path d="M461.26,113.32A23.35,23.35,0,0,1,446,125.83s2-7.87,5.15-10.17C454.4,113.25,461.26,113.32,461.26,113.32Z" style="fill:#dbdbdb"></path><path d="M453.4,289.82a13.37,13.37,0,0,1-5.72,9.75s-.47-4.63.75-6.48S453.4,289.82,453.4,289.82Z" style="fill:#dbdbdb"></path><path d="M453.46,278.33a24.46,24.46,0,0,0,7.23,18.75s2-7.87.43-11.48C459.44,281.82,453.46,278.33,453.46,278.33Z" style="fill:#ebebeb"></path><path d="M460.27,216.79a19.34,19.34,0,0,0,14.23,8.92s-2.42-6.46-5.3-8.07S460.27,216.79,460.27,216.79Z" style="fill:#ebebeb"></path><path d="M466.77,103.39A24.45,24.45,0,0,0,474,122.14s2-7.87.43-11.47C472.76,106.88,466.77,103.39,466.77,103.39Z" style="fill:#ebebeb"></path><path d="M452.07,194.6a23.93,23.93,0,0,1-7.1,18.62s-2.1-7.87-.53-11.45C446.1,198,452.07,194.6,452.07,194.6Z" style="fill:#ebebeb"></path><path d="M466.72,144.15a23.94,23.94,0,0,1-12,15.94s.16-8.15,2.66-11.15C460,145.78,466.72,144.15,466.72,144.15Z" style="fill:#ebebeb"></path><path d="M448.1,76.86a13.07,13.07,0,0,1-6.53,8.71s.09-4.45,1.45-6.09S448.1,76.86,448.1,76.86Z" style="fill:#ebebeb"></path><path d="M451.27,159.78a13.08,13.08,0,0,1-6.54,8.7s.09-4.44,1.45-6.09S451.27,159.78,451.27,159.78Z" style="fill:#ebebeb"></path><path d="M456.86,252.14a13.06,13.06,0,0,1-4.65,9.84s-.81-4.38.2-6.26S456.86,252.14,456.86,252.14Z" style="fill:#ebebeb"></path><path d="M453.62,176.67a14.47,14.47,0,0,0,10.78,5.27s-2.32-4.32-4.48-5.25S453.62,176.67,453.62,176.67Z" style="fill:#dbdbdb"></path><path d="M459.59,221.53a14.44,14.44,0,0,0,5.19,10.82s.86-4.83-.26-6.9S459.59,221.53,459.59,221.53Z" style="fill:#dbdbdb"></path><path d="M448.59,83.28a16.65,16.65,0,0,0,10.5,9.32s-1.22-5.64-3.37-7.36S448.59,83.28,448.59,83.28Z" style="fill:#dbdbdb"></path><path d="M268.09,63.24a23.37,23.37,0,0,1,12,15.73s-7.8-2.31-10-5.51C267.77,70.1,268.09,63.24,268.09,63.24Z" style="fill:#dbdbdb"></path><path d="M93.93,63.27a23.4,23.4,0,0,1,18.26,7.57s-7.9,1.93-11.4.26C97.12,69.36,93.93,63.27,93.93,63.27Z" style="fill:#dbdbdb"></path><path d="M191.73,64.29a15.42,15.42,0,0,1,2.46,12.81s-3.93-3.65-4.29-6.19S191.73,64.29,191.73,64.29Z" style="fill:#dbdbdb"></path><path d="M327.69,67a15.46,15.46,0,0,1,8.84,9.6s-5.27-1-6.9-3S327.69,67,327.69,67Z" style="fill:#dbdbdb"></path><path d="M280.61,52.59a24.46,24.46,0,0,0,16.22-11.87s-8.13.09-11.19,2.58C282.42,45.9,280.61,52.59,280.61,52.59Z" style="fill:#ebebeb"></path><path d="M238.68,59.16a19.34,19.34,0,0,0,3.38-16.45s-5.21,4.52-5.7,7.78C235.84,53.92,238.68,59.16,238.68,59.16Z" style="fill:#ebebeb"></path><path d="M372.07,51.44a14.36,14.36,0,0,0,9.76-7.77s-5.12.1-6.95,1.72S372.07,51.44,372.07,51.44Z" style="fill:#ebebeb"></path><path d="M317.38,54.52a14.39,14.39,0,0,0,10.86-6.15s-5.08-.71-7.15.61S317.38,54.52,317.38,54.52Z" style="fill:#ebebeb"></path><path d="M110.6,48.5a24.49,24.49,0,0,0,17.79-9.36s-8-1.1-11.45.91C113.37,42.15,110.6,48.5,110.6,48.5Z" style="fill:#ebebeb"></path><path d="M194.68,63.91a23.9,23.9,0,0,1,15.5,12.53s-8.13-.46-11.05-3.06S194.68,63.91,194.68,63.91Z" style="fill:#ebebeb"></path><path d="M403.44,66.83A24,24,0,0,1,419,79.36s-8.14-.45-11.05-3.06S403.44,66.83,403.44,66.83Z" style="fill:#ebebeb"></path><path d="M346.27,55.92a23.94,23.94,0,0,1,15.5,12.53s-8.13-.45-11-3S346.27,55.92,346.27,55.92Z" style="fill:#ebebeb"></path><path d="M136.89,58.16a23.94,23.94,0,0,1,15.5,12.53s-8.13-.45-11-3S136.89,58.16,136.89,58.16Z" style="fill:#ebebeb"></path><path d="M69.4,62.73a13.06,13.06,0,0,1,8.46,6.85s-4.44-.25-6-1.67S69.4,62.73,69.4,62.73Z" style="fill:#ebebeb"></path><path d="M258.6,64.09a13.07,13.07,0,0,1,8.47,6.84s-4.44-.25-6-1.67S258.6,64.09,258.6,64.09Z" style="fill:#ebebeb"></path><path d="M242.81,59.29a24,24,0,0,0,16.81-10.76s-8.13-.44-11.32,1.83C245,52.75,242.81,59.29,242.81,59.29Z" style="fill:#dbdbdb"></path><path d="M374.25,60a24,24,0,0,0,16.81-10.76s-8.14-.44-11.33,1.83C376.39,53.45,374.25,60,374.25,60Z" style="fill:#dbdbdb"></path><path d="M165.52,49.68a14.46,14.46,0,0,0,9.78-7s-4.9,0-6.75,1.44S165.52,49.68,165.52,49.68Z" style="fill:#dbdbdb"></path><path d="M421.58,62.64a14.4,14.4,0,0,0,9.77-7s-4.9,0-6.74,1.44S421.58,62.64,421.58,62.64Z" style="fill:#dbdbdb"></path><path d="M73.25,62.46A16.63,16.63,0,0,0,82.94,52.3s-5.68,1-7.47,3.11S73.25,62.46,73.25,62.46Z" style="fill:#dbdbdb"></path></g><g id="freepik--Window--inject-72"><rect x="161.05" y="102.46" width="177.9" height="274.01" style="fill:#fff"></rect><path d="M345,382.47H155.05v-286H345Zm-177.9-12H333v-262H167.05Z" style="fill:#37474f"></path><rect x="161.05" y="206.09" width="177.9" height="6.06" style="fill:#37474f"></rect><rect x="161.05" y="160.91" width="177.9" height="6.06" style="fill:#37474f"></rect><rect x="246.03" y="158.16" width="93.94" height="5.5" transform="translate(132.09 453.91) rotate(-90)" style="fill:#37474f"></rect><rect x="203.03" y="158.16" width="93.94" height="5.5" transform="translate(89.09 410.91) rotate(-90)" style="fill:#37474f"></rect><rect x="160.03" y="158.16" width="93.94" height="5.5" transform="translate(46.09 367.91) rotate(-90)" style="fill:#37474f"></rect><rect x="149.91" y="95.46" width="200.18" height="21.94" style="fill:#37474f"></rect><rect x="149.91" y="95.46" width="200.18" height="15.3" style="fill:#263238"></rect><rect x="142.35" y="84.49" width="215.31" height="21.94" style="fill:#37474f"></rect><rect x="66.11" y="117.41" width="88.94" height="265.06" style="fill:#dbdbdb"></rect><rect x="73.99" y="126.29" width="73.18" height="4.88" style="fill:#c7c7c7"></rect><rect x="73.99" y="135.27" width="73.18" height="4.88" style="fill:#c7c7c7"></rect><rect x="73.99" y="144.25" width="73.18" height="4.88" style="fill:#c7c7c7"></rect><rect x="73.99" y="153.22" width="73.18" height="4.88" style="fill:#c7c7c7"></rect><rect x="73.99" y="162.2" width="73.18" height="4.88" style="fill:#c7c7c7"></rect><rect x="73.99" y="171.18" width="73.18" height="4.88" style="fill:#c7c7c7"></rect><rect x="73.99" y="180.16" width="73.18" height="4.88" style="fill:#c7c7c7"></rect><rect x="73.99" y="189.14" width="73.18" height="4.88" style="fill:#c7c7c7"></rect><rect x="73.99" y="198.12" width="73.18" height="4.88" style="fill:#c7c7c7"></rect><rect x="73.99" y="207.1" width="73.18" height="4.88" style="fill:#c7c7c7"></rect><rect x="73.99" y="216.07" width="73.18" height="4.88" style="fill:#c7c7c7"></rect><rect x="73.99" y="225.05" width="73.18" height="4.88" style="fill:#c7c7c7"></rect><rect x="73.99" y="243.01" width="73.18" height="4.88" style="fill:#c7c7c7"></rect><rect x="73.99" y="251.99" width="73.18" height="4.88" style="fill:#c7c7c7"></rect><rect x="73.99" y="260.97" width="73.18" height="4.88" style="fill:#c7c7c7"></rect><rect x="73.99" y="269.95" width="73.18" height="4.88" style="fill:#c7c7c7"></rect><rect x="73.99" y="278.92" width="73.18" height="4.88" style="fill:#c7c7c7"></rect><rect x="73.99" y="287.9" width="73.18" height="4.88" style="fill:#c7c7c7"></rect><rect x="73.99" y="296.88" width="73.18" height="4.88" style="fill:#c7c7c7"></rect><rect x="73.99" y="305.86" width="73.18" height="4.88" style="fill:#c7c7c7"></rect><rect x="73.99" y="314.84" width="73.18" height="4.88" style="fill:#c7c7c7"></rect><rect x="73.99" y="323.82" width="73.18" height="4.88" style="fill:#c7c7c7"></rect><rect x="73.99" y="332.8" width="73.18" height="4.88" style="fill:#c7c7c7"></rect><rect x="73.99" y="341.78" width="73.18" height="4.88" style="fill:#c7c7c7"></rect><rect x="73.99" y="350.75" width="73.18" height="4.88" style="fill:#c7c7c7"></rect><rect x="73.99" y="359.73" width="73.18" height="4.88" style="fill:#c7c7c7"></rect><rect x="73.99" y="368.71" width="73.18" height="4.88" style="fill:#c7c7c7"></rect><rect x="344.95" y="117.41" width="88.94" height="265.06" style="fill:#dbdbdb"></rect><rect x="352.83" y="126.29" width="73.18" height="4.88" style="fill:#c7c7c7"></rect><rect x="352.83" y="135.27" width="73.18" height="4.88" style="fill:#c7c7c7"></rect><rect x="352.83" y="144.25" width="73.18" height="4.88" style="fill:#c7c7c7"></rect><rect x="352.83" y="153.22" width="73.18" height="4.88" style="fill:#c7c7c7"></rect><rect x="352.83" y="162.2" width="73.18" height="4.88" style="fill:#c7c7c7"></rect><rect x="352.83" y="171.18" width="73.18" height="4.88" style="fill:#c7c7c7"></rect><rect x="352.83" y="180.16" width="73.18" height="4.88" style="fill:#c7c7c7"></rect><rect x="352.83" y="189.14" width="73.18" height="4.88" style="fill:#c7c7c7"></rect><rect x="352.83" y="198.12" width="73.18" height="4.88" style="fill:#c7c7c7"></rect><rect x="352.83" y="207.1" width="73.18" height="4.88" style="fill:#c7c7c7"></rect><rect x="352.83" y="216.07" width="73.18" height="4.88" style="fill:#c7c7c7"></rect><rect x="352.83" y="225.05" width="73.18" height="4.88" style="fill:#c7c7c7"></rect><rect x="352.83" y="243.01" width="73.18" height="4.88" style="fill:#c7c7c7"></rect><rect x="352.83" y="251.99" width="73.18" height="4.88" style="fill:#c7c7c7"></rect><rect x="352.83" y="260.97" width="73.18" height="4.88" style="fill:#c7c7c7"></rect><rect x="352.83" y="269.95" width="73.18" height="4.88" style="fill:#c7c7c7"></rect><rect x="352.83" y="278.92" width="73.18" height="4.88" style="fill:#c7c7c7"></rect><rect x="352.83" y="287.9" width="73.18" height="4.88" style="fill:#c7c7c7"></rect><rect x="352.83" y="296.88" width="73.18" height="4.88" style="fill:#c7c7c7"></rect><rect x="352.83" y="305.86" width="73.18" height="4.88" style="fill:#c7c7c7"></rect><rect x="352.83" y="314.84" width="73.18" height="4.88" style="fill:#c7c7c7"></rect><rect x="352.83" y="323.82" width="73.18" height="4.88" style="fill:#c7c7c7"></rect><rect x="352.83" y="332.8" width="73.18" height="4.88" style="fill:#c7c7c7"></rect><rect x="352.83" y="341.78" width="73.18" height="4.88" style="fill:#c7c7c7"></rect><rect x="352.83" y="350.75" width="73.18" height="4.88" style="fill:#c7c7c7"></rect><rect x="352.83" y="359.73" width="73.18" height="4.88" style="fill:#c7c7c7"></rect><rect x="352.83" y="368.71" width="73.18" height="4.88" style="fill:#c7c7c7"></rect></g><g id="freepik--Character--inject-72"><path d="M269.52,246.21c-.54,17.69,1.78,39-7,55.16-6.87,12.64-19.87,20.51-33.06,25.19-29,10.29-68.43,8.91-86-20.44-7-11.73-6.58-35,7.08-42.51,7-3.83,15-4.23,22.76-5.7,10.18-1.92,17.8-7,23.11-15.9,10.39-17.4,9.6-30.78,12.81-50.21.61-3.6,1.73-7.11,5.55-9.9a24.84,24.84,0,0,1,12.09-5.56,24.76,24.76,0,0,1,12-1.06c8.59,1.56,16.3,10.19,22.62,15.67s9.12,11.06,9,19.61C270.41,222.45,269.88,234.33,269.52,246.21Z" style="fill:#263238"></path><path d="M271.07,254.69c-.54-16.26-1.41-32.47-2.17-48.71,0-.1-.15-.11-.15,0,.23,13.38.29,26.75.7,40.13.4,13.11,1.71,26.56,1,39.67-1.68,29.41-32.79,39.07-57.66,35.73-1.13-.15-1.24,1.67-.09,1.78,21.92,2.25,48.7-3.26,57.15-26.63C274.44,283.87,271.52,268,271.07,254.69Z" style="fill:#263238"></path><path d="M210.83,190.37a.25.25,0,0,0-.49,0c-2,16.1-2.75,35-13,48.42a41.18,41.18,0,0,1-19.89,14c-6.25,2-12.7,1.73-19.14,2.5-25.16,3-28,36.45-10.92,50.88.35.3.89-.3.54-.63-11.91-11.07-14.7-29.76-3.33-42.46,9.12-10.19,24.8-5.54,36.56-10.52C205.53,242.24,209.54,213.86,210.83,190.37Z" style="fill:#263238"></path><path d="M213.42,259c-26.13,26.49-59,82.22-52.88,93.51,6.83,12.59,43.22-24.55,43.08-26.72-.11-1.64,12.7-35.49,22.41-60.11S219.89,252.41,213.42,259Z" style="fill:#f7a9a0"></path><path d="M203.86,325.79c1.12-3.62,18.54-48.25,23.52-62.37s.36-18.48-13.86-5.55-45.4,56.11-52.51,79c-6.86,22.08,4.51,22.08,19.51,11.9C192.8,340.48,203.86,325.79,203.86,325.79Z" style="fill:#EBEBD3"></path><path d="M229.25,255.8c0,.26-.05.52-.09.8a.91.91,0,0,1-.75.39.89.89,0,1,1,.84-1.19ZM199.6,274.48a.9.9,0,1,0,.89.89A.89.89,0,0,0,199.6,274.48Zm14.4,0a.9.9,0,1,0,.9.89A.89.89,0,0,0,214,274.48Zm-7.2-9.23a.9.9,0,1,0,.9.89A.89.89,0,0,0,206.8,265.25Zm14.41,0a.9.9,0,1,0,.89.89A.89.89,0,0,0,221.21,265.25Zm-36,28.5a.9.9,0,1,0,.89.89A.89.89,0,0,0,185.2,293.75Zm14.4,0a.9.9,0,1,0,.89.89A.89.89,0,0,0,199.6,293.75Zm14.4,0a.9.9,0,1,0,.9.89A.89.89,0,0,0,214,293.75Zm-21.6-9.23a.9.9,0,1,0,.89.89A.89.89,0,0,0,192.4,284.52Zm14.4,0a.9.9,0,1,0,.9.89A.89.89,0,0,0,206.8,284.52ZM185.2,313a.9.9,0,1,0,.89.89A.89.89,0,0,0,185.2,313Zm14.4,0a.9.9,0,1,0,.89.89A.89.89,0,0,0,199.6,313ZM178,303.79a.9.9,0,1,0,.9.89A.89.89,0,0,0,178,303.79Zm14.41,0a.9.9,0,1,0,.89.89A.89.89,0,0,0,192.4,303.79Zm14.4,0a.9.9,0,1,0,.9.89A.89.89,0,0,0,206.8,303.79Zm-36,28.5a.89.89,0,1,0,.9.89A.89.89,0,0,0,170.79,332.29Zm14.41,0a.89.89,0,1,0,.89.89A.89.89,0,0,0,185.2,332.29ZM178,323.06a.9.9,0,1,0,.9.89A.89.89,0,0,0,178,323.06Zm14.41,0a.9.9,0,1,0,.89.89A.89.89,0,0,0,192.4,323.06Zm-21.61,28.5a.89.89,0,1,0,.9.89A.89.89,0,0,0,170.79,351.56Zm-7.2-9.23a.9.9,0,1,0,.89.89A.89.89,0,0,0,163.59,342.33Zm14.4,0a.9.9,0,1,0,.9.89A.89.89,0,0,0,178,342.33Z" style="fill:#fff"></path><path d="M193.53,366.34l2.61-15.65,3.75-27.77s-8.83-15.42-3.71-26.48C198.77,290.83,221.46,256,231,249c9-6.51,22,.46,26.82,5.55,18.66,19.64,27.46,58.64,34.16,111.76Z" style="fill:#f7a9a0"></path><path d="M196.8,345.78l3.09-22.85s-8.83-15.42-3.71-26.49C198.77,290.83,221.46,256,231,249c9-6.5,22,.46,26.82,5.56,16.16,17,24.93,48.54,31.34,91.19Z" style="fill:#EBEBD3"></path><path d="M235.1,322.46a88.13,88.13,0,0,0-13.1-.17c-2.16.16-4.31.42-6.46.73-1.07.15-2.14.27-3.22.38a13.66,13.66,0,0,1-3.38,0,.08.08,0,1,0,0,.15,24.06,24.06,0,0,0,3.17.51,23.06,23.06,0,0,0,3.11,0c2.2-.14,4.39-.39,6.59-.55,4.43-.34,8.86-.67,13.31-.69A.18.18,0,0,0,235.1,322.46Z" style="fill:#263238"></path><path d="M245,328.14a95.08,95.08,0,0,0-10.54-2.4c-1.78-.3-3.56-.48-5.36-.63-.86-.07-1.72-.12-2.58-.16s-1.9,0-2.85,0c-.1,0-.13.14,0,.15.89.09,1.77.32,2.65.46l2.66.4c1.78.27,3.56.56,5.34.82,3.56.51,7.11,1.05,10.65,1.68C245.16,328.47,245.2,328.19,245,328.14Z" style="fill:#263238"></path><path d="M196.14,350.69c.5-4.64,1-9.29,1.59-13.92s1.1-9.28,1.72-13.91l.09.33a28.32,28.32,0,0,1-3.25-6.09,31.66,31.66,0,0,1-1.84-6.63,30.54,30.54,0,0,1-.3-6.89,25.39,25.39,0,0,1,1.7-6.69,67.76,67.76,0,0,1,6.41-12,113.87,113.87,0,0,1,8.08-10.94c-2.69,3.64-5.21,7.41-7.57,11.26a76.4,76.4,0,0,0-6.09,12,24.06,24.06,0,0,0-1.58,6.45,31.53,31.53,0,0,0,.33,6.65,30.58,30.58,0,0,0,1.73,6.45,27.13,27.13,0,0,0,3.08,5.9l.1.15,0,.17c-.62,4.63-1.35,9.24-2,13.87S196.89,346.08,196.14,350.69Z" style="fill:#263238"></path><path d="M202.77,284.87a8.14,8.14,0,0,1,.37-1.83,15.86,15.86,0,0,1,.65-1.74c.25-.56.51-1.12.81-1.66a14.27,14.27,0,0,1,1-1.57c-.38,1.19-.87,2.31-1.35,3.43S203.24,283.72,202.77,284.87Z" style="fill:#263238"></path><polygon points="121.74 444.57 378.26 444.57 387.82 396.49 112.18 396.49 121.74 444.57" style="fill:#EBEBD3"></polygon><polygon points="112.19 396.49 115.61 413.68 384.39 413.68 387.81 396.49 112.19 396.49" style="opacity:0.12"></polygon><rect x="107.38" y="393.14" width="285.24" height="14.63" transform="translate(500 800.92) rotate(180)" style="fill:#EBEBD3"></rect><path d="M389.39,388.53a6.25,6.25,0,0,1-3.17,1.67,7.65,7.65,0,0,1-2,8.52,4.31,4.31,0,0,1-5.24,5.86,10.76,10.76,0,0,1-15.47,3.91,8.23,8.23,0,0,1-13.65,1.06,13.07,13.07,0,0,1-17.26-1.69,7.78,7.78,0,0,1-4.34,2c-2,.34-4.1.11-6.06.58-2.78.67-4.45,2.67-6.6,4.34s-6,2.3-8.07.6a27.88,27.88,0,0,1-22.05,14.09c-7.81.6-17.54-3.13-19.39-11.13A16.35,16.35,0,0,1,240.21,412c-6.13,2.56-14.07,4.27-18-1.64a10.23,10.23,0,0,1-13.55,1.72c-6.24,6.61-17.43,14.59-24.81,5.85-6.32,5.67-16.87,9.41-22.31,1-5.29,3.11-12,5.91-17.82,2.85-3.84-2-6.32-6.1-5.69-10.29a7.74,7.74,0,0,1-7.86-3.3c-2.5,1.19-3.92-1.42-5.89-3.09-3.79-3.25-8.8-.88-12.75-3.66-6.4-4.49-.9-11.67,4.23-14a9.91,9.91,0,0,1,12.34-11,12.59,12.59,0,0,1,6.3-12.82c6.82-3.84,14.74-.49,19.74,4.73A25.69,25.69,0,0,1,177,356.82c5.58.3,13,3.58,15.7,8.78a21.47,21.47,0,0,1,5.89-2.31,21.71,21.71,0,0,1,21.51,7.1,19.31,19.31,0,0,1,19.63,3.78,16.69,16.69,0,0,1,27.79,1.05,26.46,26.46,0,0,1,41.72,2c4.9-8.67,14.78-9.17,24.25-8.11,3,.32,5,.3,7.72-.95,1-.45,1.86-1.1,2.85-1.53a20.23,20.23,0,0,1,6.52-1.68,22.64,22.64,0,0,1,13.05,2.8c1.75,1,3.54,3.52,5.22,4.21,2.11.86,6-.37,8.43-.05,4.36.59,9,2.64,11.83,6.15C391.52,381.16,392.52,385.6,389.39,388.53Z" style="fill:#455a64"></path><path d="M141.8,384.46c2-4.15,0-11.57-5.23-13.7s-12.35,1.91-13.51,6.48S126.9,389.45,131,390C135.58,390.58,140.32,387.51,141.8,384.46Z" style="fill:#EBEBD3"></path><path d="M120.87,378.34c3.71,3.18,9.87,6,14.91,5.79a41.35,41.35,0,0,1-6.68,6.56c-.14.12,0,.38.19.27,5.78-3.85,11.47-10.81,11.72-18,0-.1-.13-.1-.14,0a18.75,18.75,0,0,1-1.69,5.81c-2-4.3-7.66-7.53-12-8.55a.11.11,0,0,0-.07.21,40.41,40.41,0,0,1,3.89,1.82c-2.4,2.12-4.21,6.25-3.67,9.42a33.53,33.53,0,0,1-6.2-3.61C121,377.91,120.7,378.2,120.87,378.34ZM136,383.88a23.64,23.64,0,0,1-6.09-1.24,14.06,14.06,0,0,0,8.42-2.22A29.5,29.5,0,0,1,136,383.88Zm3-4.78c-.16.33-.33.65-.51,1a18.66,18.66,0,0,1-6.24,1.89,11.76,11.76,0,0,0,4.61-5.46A18.5,18.5,0,0,1,139,379.1Zm-2.26-2.72a19.88,19.88,0,0,1-2.87,3.88c-.41-.09-.81-.21-1.21-.34a5,5,0,0,0,2-4.18c.56.07,1.13.17,1.71.29Zm-4.26-.76a4.4,4.4,0,0,1,.44.93,4.62,4.62,0,0,1,.11,1.23,5.55,5.55,0,0,1-2-.08,9.19,9.19,0,0,1,.69-2C132,375.64,132.23,375.63,132.48,375.62Zm.37,0a13.48,13.48,0,0,1,1.67.1,9.81,9.81,0,0,1-.64,1.94l-.77.11A2.52,2.52,0,0,0,132.85,375.62Zm.91,2.27a6.59,6.59,0,0,1-1.48,1.89,11.4,11.4,0,0,1-1.07-.49,2.83,2.83,0,0,1-.21-1.38A3.22,3.22,0,0,0,133.76,377.89Zm-2.6-5.57a25.46,25.46,0,0,1,4.76,3.31,9.36,9.36,0,0,0-6.89.4A15.48,15.48,0,0,1,131.16,372.32Zm-2.25,4a11.28,11.28,0,0,1,2.62-.65,3.62,3.62,0,0,0-.75,3.33,8.13,8.13,0,0,1-2.18-1.86C128.7,376.88,128.81,376.61,128.91,376.34Zm-.46,1.26a7.67,7.67,0,0,0,5.26,2.81,13.86,13.86,0,0,1-1.89,1.61c-.88.12-1.79.2-2.75.29l0,0c-.49-.19-1-.38-1.47-.59A22,22,0,0,1,128.45,377.6Z" style="opacity:0.12"></path><path d="M229.19,382.91c2-4.16,0-11.57-5.23-13.71s-12.36,1.92-13.52,6.48,3.85,12.22,8,12.75C223,389,227.71,386,229.19,382.91Z" style="fill:#EBEBD3"></path><path d="M208.26,376.79c3.71,3.17,9.86,6,14.91,5.79a41.35,41.35,0,0,1-6.68,6.56c-.14.12,0,.37.19.27,5.78-3.85,11.47-10.82,11.72-18a.07.07,0,0,0-.14,0,18.83,18.83,0,0,1-1.69,5.81c-2-4.3-7.66-7.53-12-8.55a.11.11,0,0,0-.07.21,39.18,39.18,0,0,1,3.89,1.82c-2.4,2.12-4.21,6.24-3.67,9.41a32.94,32.94,0,0,1-6.2-3.6C208.34,376.36,208.09,376.64,208.26,376.79Zm15.11,5.54a23.58,23.58,0,0,1-6.09-1.25,13.87,13.87,0,0,0,8.41-2.22A27.59,27.59,0,0,1,223.37,382.33Zm3-4.78c-.16.33-.33.65-.51,1a18.66,18.66,0,0,1-6.24,1.89,11.76,11.76,0,0,0,4.61-5.46A17.42,17.42,0,0,1,226.39,377.55Zm-2.27-2.73a19.22,19.22,0,0,1-2.86,3.89,10.42,10.42,0,0,1-1.21-.35,5,5,0,0,0,2-4.18q.84.1,1.71.3Zm-4.25-.75a5,5,0,0,1,.44.93,4.59,4.59,0,0,1,.11,1.23,5.55,5.55,0,0,1-2-.09,9.55,9.55,0,0,1,.69-2C219.37,374.09,219.62,374.07,219.87,374.07Zm.37,0a15.74,15.74,0,0,1,1.67.1,9,9,0,0,1-.65,1.94c-.25,0-.51.09-.76.12A2.55,2.55,0,0,0,220.24,374.06Zm.91,2.28a6.73,6.73,0,0,1-1.48,1.89,11.4,11.4,0,0,1-1.07-.49,2.85,2.85,0,0,1-.21-1.38A3.22,3.22,0,0,0,221.15,376.34Zm-2.6-5.57a25.41,25.41,0,0,1,4.76,3.3,9.36,9.36,0,0,0-6.89.41A15.48,15.48,0,0,1,218.55,370.77Zm-2.25,4a10.8,10.8,0,0,1,2.62-.65,3.62,3.62,0,0,0-.75,3.33A8,8,0,0,1,216,375.6Zm-.46,1.26a7.71,7.71,0,0,0,5.26,2.81,14.6,14.6,0,0,1-1.89,1.61c-.88.11-1.79.2-2.75.28l-.05,0c-.49-.18-1-.37-1.47-.58A21.81,21.81,0,0,1,215.84,376.05Z" style="opacity:0.12"></path><path d="M295.87,401.76c4.52-1,9.13-7.11,7.62-12.53s-9.09-8.59-13.41-6.71-7.29,10.53-5.19,14.11C287.23,400.6,292.56,402.46,295.87,401.76Z" style="fill:#EBEBD3"></path><path d="M287.87,381.48c-.23,4.87,1.32,11.46,4.57,15.32a41.7,41.7,0,0,1-9.27-1.25c-.19,0-.28.26-.1.32,6.58,2.2,15.57,2.42,21.42-1.79a.08.08,0,0,0-.09-.12,18.67,18.67,0,0,1-5.63,2.23c2.2-4.19,1.25-10.67-.6-14.72a.11.11,0,0,0-.21.07,39.13,39.13,0,0,1,1,4.19c-3.15-.6-7.51.51-9.69,2.88a33.8,33.8,0,0,1-1-7.11C288.26,381.27,287.88,381.25,287.87,381.48Zm4.89,15.33a23.88,23.88,0,0,1-2.75-5.57,13.93,13.93,0,0,0,6.91,5.28A28.79,28.79,0,0,1,292.76,396.81Zm5.63-.55c-.36.08-.72.14-1.08.19a18.51,18.51,0,0,1-5.32-3.77,11.77,11.77,0,0,0,7.14.3A18,18,0,0,1,298.39,396.26Zm.76-3.46a19.45,19.45,0,0,1-4.82.12,9.85,9.85,0,0,1-.47-1.17,5,5,0,0,0,4.52-1q.44.74.81,1.53C299.18,392.46,299.17,392.63,299.15,392.8Zm-2-3.83a4.7,4.7,0,0,1-.47.92,3.78,3.78,0,0,1-.9.84,5.43,5.43,0,0,1-1.15-1.62,9.32,9.32,0,0,1,2-.7Zm.23.3a13.25,13.25,0,0,1,.94,1.37,8.73,8.73,0,0,1-1.92.69l-.57-.54A2.51,2.51,0,0,0,297.37,389.27Zm-1.23,2.11a6.51,6.51,0,0,1-2.41,0,9,9,0,0,1-.26-1.14,2.71,2.71,0,0,1,1-1A3.17,3.17,0,0,0,296.14,391.38Zm2.8-5.47a25.49,25.49,0,0,1,.3,5.78,9.28,9.28,0,0,0-4.54-5.18A15.34,15.34,0,0,1,298.94,385.91Zm-4.56.69a10.5,10.5,0,0,1,2.12,1.67,3.61,3.61,0,0,0-3.09,1.45,8.14,8.14,0,0,1,.14-2.87Zm-1.27.41a7.66,7.66,0,0,0,1,5.88,13.65,13.65,0,0,1-2.43-.51c-.63-.63-1.26-1.29-1.91-2l0,0c-.16-.51-.3-1-.44-1.52A21.86,21.86,0,0,1,293.11,387Z" style="opacity:0.12"></path><path d="M364.88,390.74c-4.51-1-9.13-7.11-7.62-12.53s9.09-8.59,13.41-6.7,7.29,10.52,5.19,14.1C373.53,389.58,368.19,391.44,364.88,390.74Z" style="fill:#EBEBD3"></path><path d="M372.49,370.48a34.4,34.4,0,0,1-1,7.11c-2.17-2.37-6.54-3.47-9.69-2.88a39.69,39.69,0,0,1,1-4.19.11.11,0,0,0-.21-.07c-1.85,4.05-2.79,10.53-.6,14.72a18.67,18.67,0,0,1-5.63-2.23.07.07,0,1,0-.08.12c5.84,4.22,14.83,4,21.42,1.79.17-.06.08-.36-.1-.31a43.09,43.09,0,0,1-9.28,1.25c3.25-3.87,4.81-10.46,4.57-15.33C372.87,370.23,372.49,370.25,372.49,370.48Zm-8.66,15a13.93,13.93,0,0,0,6.91-5.28,23.5,23.5,0,0,1-2.75,5.57A28.79,28.79,0,0,1,363.83,385.5Zm-2.2-3.54a11.77,11.77,0,0,0,7.14-.3,18.78,18.78,0,0,1-5.33,3.78c-.36-.06-.72-.12-1.07-.2A17.25,17.25,0,0,1,361.63,382Zm-.07-.69c.26-.53.53-1,.82-1.53a5,5,0,0,0,4.52,1,11.9,11.9,0,0,1-.47,1.17,19.53,19.53,0,0,1-4.83-.12C361.58,381.61,361.58,381.44,361.56,381.27Zm2.55-3.87a8.81,8.81,0,0,1,2,.69,5.56,5.56,0,0,1-1.16,1.63,4.27,4.27,0,0,1-.9-.85,4.62,4.62,0,0,1-.47-.91C363.77,377.77,363.94,377.58,364.11,377.4Zm.82,2.37c-.18.19-.37.37-.56.54a9.1,9.1,0,0,1-1.93-.68,12.39,12.39,0,0,1,.94-1.38A2.54,2.54,0,0,0,364.93,379.77Zm1.4-1.57a2.68,2.68,0,0,1,1,1,11.1,11.1,0,0,1-.27,1.14,6.46,6.46,0,0,1-2.4,0A3.2,3.2,0,0,0,366.33,378.2Zm-.28-2.71a9.34,9.34,0,0,0-4.54,5.19,25.55,25.55,0,0,1,.3-5.79A15.34,15.34,0,0,1,366.05,375.49Zm1.15.35a7.85,7.85,0,0,1,.15,2.86,3.6,3.6,0,0,0-3.1-1.44,10.47,10.47,0,0,1,2.12-1.68C366.65,375.67,366.93,375.74,367.2,375.84Zm4.27,2c-.13.51-.28,1-.44,1.52l0,0c-.66.71-1.28,1.37-1.91,2a13.75,13.75,0,0,1-2.44.51,7.66,7.66,0,0,0,1-5.88A22.1,22.1,0,0,1,371.47,377.82Z" style="opacity:0.12"></path><path d="M177.8,409.38c-4.51-.95-9.12-7.11-7.62-12.53s9.09-8.59,13.41-6.7,7.3,10.53,5.2,14.1C186.45,408.23,181.12,410.09,177.8,409.38Z" style="fill:#EBEBD3"></path><path d="M185.41,389.12a33,33,0,0,1-1,7.11c-2.17-2.37-6.53-3.47-9.68-2.88a39.51,39.51,0,0,1,.95-4.18.11.11,0,0,0-.21-.08c-1.86,4.05-2.8,10.54-.6,14.72a18.56,18.56,0,0,1-5.63-2.23c-.08,0-.16.07-.09.12,5.84,4.22,14.84,4,21.42,1.79.18-.06.08-.35-.1-.31a41.7,41.7,0,0,1-9.27,1.25c3.25-3.87,4.8-10.46,4.57-15.32C185.79,388.88,185.42,388.9,185.41,389.12Zm-8.66,15a14,14,0,0,0,6.92-5.29,23.69,23.69,0,0,1-2.75,5.57A27.56,27.56,0,0,1,176.75,404.15Zm-2.2-3.55a11.77,11.77,0,0,0,7.14-.29,18.56,18.56,0,0,1-5.33,3.77l-1.07-.19A18,18,0,0,1,174.55,400.6Zm-.07-.68c.26-.54.53-1.05.82-1.54a5,5,0,0,0,4.52,1,10.81,10.81,0,0,1-.47,1.16,19.45,19.45,0,0,1-4.82-.11C174.5,400.26,174.5,400.09,174.48,399.92ZM177,396a9.32,9.32,0,0,1,2,.7,5.82,5.82,0,0,1-1.15,1.62,4.24,4.24,0,0,1-.9-.84,3.81,3.81,0,0,1-.47-.92C176.7,396.41,176.86,396.22,177,396Zm.82,2.38-.56.53a9.51,9.51,0,0,1-1.93-.68,14.66,14.66,0,0,1,.95-1.38A2.51,2.51,0,0,0,177.85,398.42Zm1.4-1.58a2.75,2.75,0,0,1,1,1,7.67,7.67,0,0,1-.27,1.15,6.68,6.68,0,0,1-2.4,0A3.17,3.17,0,0,0,179.25,396.84Zm-.28-2.71a9.32,9.32,0,0,0-4.53,5.19,25.49,25.49,0,0,1,.3-5.78A14.89,14.89,0,0,1,179,394.13Zm1.16.35a8.14,8.14,0,0,1,.14,2.87,3.59,3.59,0,0,0-3.1-1.45,11.09,11.09,0,0,1,2.12-1.67Zm4.26,2c-.13.52-.28,1-.43,1.52,0,0,0,0-.05,0-.65.71-1.28,1.37-1.91,2a14.47,14.47,0,0,1-2.44.5,7.64,7.64,0,0,0,1-5.87A21.73,21.73,0,0,1,184.39,396.46Z" style="opacity:0.12"></path><path d="M160.54,352.47c5.88,8.42,21.89,10,61.84,17.85C227.9,371.4,246,334.45,240.19,333c-7.36-1.84-36.31-7.38-38.48-7.52C183.42,324.31,156.55,346.77,160.54,352.47Z" style="fill:#f7a9a0"></path><path d="M232.2,331.17s16.93,2.55,25.4,6.65c11.35,5.48,18.89,14.89,21.81,19,6.1,8.63,14.88,33.7,8.09,37.49-6.13,3.43-13.81-22.65-13.81-22.65s12.22,25.3,4.07,28.07-15.35-28-15.35-28,12,26.27,3.12,27.8c-6.69,1.16-14.78-26.36-14.78-26.36s10.13,22.66,3.3,24.14C246.5,399,237.45,374,237.45,374c-18,.85-26.92-6.11-32.68-11.81C203.38,360.83,232.2,331.17,232.2,331.17Z" style="fill:#f7a9a0"></path><path d="M270,362.66c1.54,2.92,3.13,5.86,4.4,8.91s2.45,6.14,3.44,9.29a55.75,55.75,0,0,1,2.68,12.64c-1.28-7.58-5.69-18.56-7-21.61s-2.4-6.15-3.68-9.19C269.87,362.62,270,362.59,270,362.66Z" style="fill:#263238"></path><path d="M258.93,367.07c1.81,3.82,3.75,7.54,5.39,11.43s2.84,7.7,4.2,11.68c.11.3-.09.26-.21-.05-1.52-3.92-3.23-7.42-4.79-11.33s-3-7.86-4.68-11.69C258.81,367.05,258.91,367,258.93,367.07Z" style="fill:#263238"></path><path d="M248.74,369.15a94.12,94.12,0,0,1,6.89,18.11c.1.3-.16.22-.27-.09-2.18-6.06-3.84-10.83-6.82-17.91C248.49,369.15,248.67,369,248.74,369.15Z" style="fill:#263238"></path><path d="M267.63,344.26a35.86,35.86,0,0,1,5.5,4.4,44.33,44.33,0,0,1,4.72,5.25c.73.93,1.38,1.91,2.06,2.88s1.27,2,1.78,3a35,35,0,0,1,2.74,6.5c-.59-1-1-2.11-1.65-3.1l-.84-1.53c-.29-.5-.61-1-.91-1.48a66.08,66.08,0,0,0-4-5.71c-1.4-1.84-2.91-3.61-4.47-5.32-.79-.86-1.59-1.7-2.42-2.52S268.5,345.05,267.63,344.26Z" style="fill:#263238"></path><path d="M235.73,331.17l-35,39s-35.39-8.13-40.6-17.2c-3.43-6,23.21-30.17,43.32-27.35Z" style="fill:#EBEBD3"></path><path d="M186.09,333.18a.9.9,0,1,1-.89-.89A.89.89,0,0,1,186.09,333.18Zm13.51-.89a.89.89,0,1,0,.89.89A.89.89,0,0,0,199.6,332.29Zm14.4,0a.89.89,0,1,0,.9.89A.89.89,0,0,0,214,332.29Zm14.41,0a.89.89,0,1,0,.89.89A.89.89,0,0,0,228.41,332.29Zm-57.62,19.27a.89.89,0,1,0,.9.89A.89.89,0,0,0,170.79,351.56Zm14.41,0a.89.89,0,1,0,.89.89A.89.89,0,0,0,185.2,351.56Zm14.4,0a.89.89,0,1,0,.89.89A.89.89,0,0,0,199.6,351.56Zm14.4,0a.89.89,0,1,0,.9.89A.89.89,0,0,0,214,351.56Zm-36-9.23a.9.9,0,1,0,.9.89A.89.89,0,0,0,178,342.33Zm14.41,0a.9.9,0,1,0,.89.89A.89.89,0,0,0,192.4,342.33Zm14.4,0a.9.9,0,1,0,.9.89A.89.89,0,0,0,206.8,342.33Zm14.41,0a.9.9,0,1,0,.89.89A.89.89,0,0,0,221.21,342.33ZM178,361.6a.9.9,0,1,0,.9.89A.89.89,0,0,0,178,361.6Zm14.41,0a.9.9,0,1,0,.89.89A.89.89,0,0,0,192.4,361.6Zm14.41,0a.9.9,0,0,0-.9.9.89.89,0,0,0,.9.89l.88-1h0A.9.9,0,0,0,206.81,361.59Z" style="fill:#fff"></path><path d="M179.47,331.93c3.24-2.35,12.37-7.83,24-6.37.1,0,.11.18,0,.17-8.78-.25-20.63,4.34-24,6.34C179.46,332.12,179.39,332,179.47,331.93Z" style="fill:#263238"></path><path d="M191.17,363.61c3.62-4.49,7.47-8.78,11.34-13.06s7.73-8.58,11.71-12.77c2.24-2.37,4.48-4.75,6.81-7,.06-.06.17,0,.12.1-3.61,4.48-7.46,8.8-11.29,13.1s-7.73,8.58-11.65,12.82c-2.22,2.39-4.48,4.74-6.81,7C191.28,363.91,191.07,363.74,191.17,363.61Z" style="fill:#263238"></path><path d="M235.8,330.66a49,49,0,0,0-6.56-1.49c-2.21-.42-4.43-.79-6.64-1.15-4.41-.71-13.68-2.71-21.83-2.69-.09,0,.37.44.46.44,3.88-.21,31.68,5.32,34,5.48a4.09,4.09,0,0,0-.25.46c0,.12.07.26.19.18.29-.19.49-.43.76-.64A.33.33,0,0,0,235.8,330.66Z" style="fill:#263238"></path><path d="M264.2,257c33.44,29.17,59.74,65.21,58,74.22C319.05,348,297,349.05,293.62,345.42c-13.54-14.67-27.83-43.09-43.31-74.8C236.48,242.28,253.19,247.41,264.2,257Z" style="fill:#EBEBD3"></path><path d="M258.11,256.1a.9.9,0,1,1-.89-.89A.89.89,0,0,1,258.11,256.1Zm-.89,18.38a.9.9,0,1,0,.89.89A.89.89,0,0,0,257.22,274.48Zm14.4,0a.9.9,0,1,0,.9.89A.89.89,0,0,0,271.62,274.48ZM250,265.25a.9.9,0,1,0,.89.89A.89.89,0,0,0,250,265.25Zm14.4,0a.9.9,0,1,0,.89.89A.89.89,0,0,0,264.42,265.25Zm7.2,28.5a.9.9,0,1,0,.9.89A.89.89,0,0,0,271.62,293.75Zm14.41,0a.9.9,0,1,0,.89.89A.89.89,0,0,0,286,293.75Zm14.09.05a.9.9,0,0,0-.58.84.89.89,0,0,0,.89.89.91.91,0,0,0,.77-.43Zm-35.7-9.28a.9.9,0,1,0,.89.89A.89.89,0,0,0,264.42,284.52Zm14.4,0a.9.9,0,1,0,.9.89A.89.89,0,0,0,278.82,284.52Zm13.65.42a.92.92,0,0,0-.13.47.89.89,0,0,0,.89.9.84.84,0,0,0,.37-.08C293.23,285.79,292.85,285.37,292.47,284.94ZM272,313.08c.19.33.36.66.54,1a.81.81,0,0,0,0-.15A.88.88,0,0,0,272,313.08ZM286,313a.9.9,0,1,0,.89.89A.89.89,0,0,0,286,313Zm14.4,0a.9.9,0,1,0,.89.89A.89.89,0,0,0,300.43,313Zm14.06.06h0a.9.9,0,0,0,.35,1.72.92.92,0,0,0,.61-.23C315.14,314.08,314.82,313.58,314.49,313.08Zm-35.67-9.29a.9.9,0,1,0,.9.89A.89.89,0,0,0,278.82,303.79Zm14.41,0a.9.9,0,1,0,.89.89A.89.89,0,0,0,293.23,303.79Zm15.29.71s0,0,0,0l0,0-.42-.55a.87.87,0,0,0-.45-.12.9.9,0,0,0,0,1.79.91.91,0,0,0,.9-.89A1.21,1.21,0,0,0,308.52,304.5ZM286,332.29a.89.89,0,1,0,.89.89A.89.89,0,0,0,286,332.29Zm14.4,0a.89.89,0,1,0,.89.89A.89.89,0,0,0,300.43,332.29Zm14.41,0a.89.89,0,1,0,.89.89A.89.89,0,0,0,314.84,332.29Zm-36-9.23a.9.9,0,1,0,.9.89A.89.89,0,0,0,278.82,323.06Zm14.41,0a.9.9,0,1,0,.89.89A.89.89,0,0,0,293.23,323.06Zm14.4,0a.9.9,0,1,0,.9.89A.89.89,0,0,0,307.63,323.06Zm-14.4,19.27a.9.9,0,1,0,.89.89A.89.89,0,0,0,293.23,342.33Zm14.4,0a.9.9,0,1,0,.9.89A.89.89,0,0,0,307.63,342.33Z" style="fill:#fff"></path><path d="M288.1,338.87c-2.45-3.8-4.76-7.72-7.1-11.6s-4.66-7.78-6.94-11.7c-4.5-7.75-8.68-15.67-12.71-23.67-2.28-4.53-4.6-9-6.77-13.62-.07-.15-.31,0-.26.11q3.15,8,6.78,15.74L261,294c-.54-.73-1.08-1.46-1.61-2.2-1.05-1.46-2-2.95-3-4.48-.07-.12-.26,0-.19.12a51.42,51.42,0,0,0,3.66,6A28.31,28.31,0,0,0,262,296l.07.06c1.11,2.3,2.24,4.59,3.43,6.86a271.21,271.21,0,0,0,13.64,23.52c1.4,2.13,2.81,4.25,4.28,6.34s3,4.11,4.56,6.17C288,339.08,288.18,339,288.1,338.87Z" style="fill:#263238"></path><path d="M299.16,342.17C292.82,333.08,296,315,303,271.6c1-6,46.54-6.47,45.84,0-.88,8.14-9,40.31-11.11,45C327.36,339.8,303.45,348.34,299.16,342.17Z" style="fill:#f7a9a0"></path><path d="M347.36,277.2c1.89-4.86,10.58-31.8,11-38.63s.27-26.58-4.93-27.44-5.61,4.92-5.61,4.92-1.39-8.33-6.7-8.73-5.66,8.63-5.66,8.63-2.05-8.45-7.38-8.46S324,216.6,324,216.6s-1.52-7.81-5.91-6c-5.28,2.2-.86,16.29-1.91,23.79-.24,1.71-7.28,34.2-7.28,34.2Z" style="fill:#f7a9a0"></path><path d="M323.86,215.82c3.23,10.37,2.85,15.46.09,25.78-.05.21.24.33.31.13,3.62-9.87,5-16.19.1-26.09C324.12,215.15,323.71,215.33,323.86,215.82Z" style="fill:#263238"></path><path d="M335.21,215.13c2.41,11.06,2.05,16.59,0,27.62,0,.15.24.22.28.06,3-10.64,4.21-17,.35-27.71C335.61,214.61,335.1,214.63,335.21,215.13Z" style="fill:#263238"></path><path d="M347.72,216.6c1.56,10.88,1.42,17-2,27.4a.2.2,0,0,0,.38.15c4.51-10.31,4.74-17.89,1.94-27.56C347.86,215.93,347.62,215.92,347.72,216.6Z" style="fill:#263238"></path><path d="M302.34,277.09s-3.61-13.11-3.92-19.23,6.91-29.31,12-28c6.59,1.65,5.06,15.87,3.4,22.73,0,0,15.24,3.8,16.35,14.24S302.34,277.09,302.34,277.09Z" style="fill:#f7a9a0"></path><path d="M312.1,230.87c4.92,5.83,2.16,14.7,1,21.48a.63.63,0,0,0,.7.76c6.28,2,14.56,6.69,16.6,13.34a.16.16,0,0,0,.31-.06c-1.22-7.44-9-12.7-16-14.46,1.25-6.94,3.63-16-2.61-21.11C312.11,230.79,312.06,230.83,312.1,230.87Z" style="fill:#263238"></path><path d="M349.56,286.3l-52.85,15s-10.54,34.64-3.84,43.33c7.17,9.29,40.44-5.11,47.06-25.35Z" style="fill:#EBEBD3"></path><path d="M330.13,294.64a.89.89,0,1,1-.89-.89A.89.89,0,0,1,330.13,294.64Zm13.51-.89a.9.9,0,1,0,.9.89A.89.89,0,0,0,343.64,293.75ZM300.43,313a.9.9,0,1,0,.89.89A.89.89,0,0,0,300.43,313Zm14.41,0a.9.9,0,1,0,.89.89A.89.89,0,0,0,314.84,313Zm14.4,0a.9.9,0,1,0,.89.89A.89.89,0,0,0,329.24,313Zm-21.61-9.23a.9.9,0,1,0,.9.89A.89.89,0,0,0,307.63,303.79Zm14.41,0a.9.9,0,1,0,.89.89A.89.89,0,0,0,322,303.79Zm14.4,0a.9.9,0,1,0,.9.89A.89.89,0,0,0,336.44,303.79Zm-36,28.5a.89.89,0,1,0,.89.89A.89.89,0,0,0,300.43,332.29Zm14.41,0a.89.89,0,1,0,.89.89A.89.89,0,0,0,314.84,332.29Zm14.4,0a.89.89,0,1,0,.89.89A.89.89,0,0,0,329.24,332.29Zm-36-9.23a.9.9,0,1,0,.89.89A.89.89,0,0,0,293.23,323.06Zm14.4,0a.9.9,0,1,0,.9.89A.89.89,0,0,0,307.63,323.06Zm14.41,0a.9.9,0,1,0,.89.89A.89.89,0,0,0,322,323.06Zm14.4,0a.9.9,0,1,0,.9.89A.89.89,0,0,0,336.44,323.06Zm-43.21,19.27a.9.9,0,1,0,.89.89A.89.89,0,0,0,293.23,342.33Zm14.4,0a.9.9,0,1,0,.9.89A.89.89,0,0,0,307.63,342.33Z" style="fill:#fff"></path><path d="M298.44,313.31c5.9-1.34,11.72-3,17.54-4.66s11.65-3.32,17.43-5.13c3.26-1,6.53-2,9.76-3.17.09,0,.06-.18,0-.16-5.89,1.33-11.73,3-17.54,4.59s-11.66,3.32-17.46,5.06c-3.27,1-6.53,2-9.76,3.17C298.22,313.07,298.27,313.35,298.44,313.31Z" style="fill:#263238"></path><path d="M298.59,300.72c-.82.08-1.64.25-2.45.41a.38.38,0,0,0-.26.26c-.9,3.08-1.54,6.25-2.18,9.39s-1.19,6.2-1.7,9.32c-.28,1.67-.52,3.36-.71,5a17.91,17.91,0,0,0-1.83,6.53.1.1,0,0,0,.2,0,22.62,22.62,0,0,1,1.55-5.87,41.74,41.74,0,0,0,.33,12.37,0,0,0,0,0,0,0c-1-6.1.5-12.46,1.5-18.46.5-3,1.07-6,1.66-9s1.28-5.95,1.83-8.94c.7-.27,1.41-.53,2.08-.85A.1.1,0,0,0,298.59,300.72Z" style="fill:#263238"></path><path d="M245,249.2c-.47,1.7-9.09,12.55-16.93,11.89-2.55-.22-2-14.21-2-14.21l-.19-1-2.7-14.59L240.57,221l2.51-1.36s.48,4,1,9.09c0,.23.05.46.07.71s.08.56.1.82c.1.75.18,1.52.26,2.29.06.58.11,1.15.15,1.76s.1,1.22.15,1.83A96.47,96.47,0,0,1,245,249.2Z" style="fill:#f7a9a0"></path><path d="M244.1,228.7a29.79,29.79,0,0,1-18.24,17.14l-2.7-14.59L240.57,221l2.51-1.36S243.56,223.66,244.1,228.7Z" style="fill:#263238"></path><path d="M204.81,207.64c-2.69,25.91,12.53,30.45,18.12,31,5.07.52,22.41,1.65,27.76-23.85s-5.85-34.93-17.39-36.74S207.5,181.73,204.81,207.64Z" style="fill:#f7a9a0"></path><path d="M213.54,201.62a17.64,17.64,0,0,0,1.78-.21,2.92,2.92,0,0,0,1.78-.56.92.92,0,0,0,.11-1.13A2.32,2.32,0,0,0,215,199a3.38,3.38,0,0,0-2.22,1A1,1,0,0,0,213.54,201.62Z" style="fill:#263238"></path><path d="M232.12,201.48a15.45,15.45,0,0,1-1.73-.5,2.89,2.89,0,0,1-1.66-.85.92.92,0,0,1,.08-1.12,2.3,2.3,0,0,1,2.3-.37,3.35,3.35,0,0,1,2,1.35A1,1,0,0,1,232.12,201.48Z" style="fill:#263238"></path><path d="M227.49,209.26c0-.06.13.1.12.17-.23,1.76-.19,3.82,1.35,4.56,0,0,0,.11,0,.1C227,213.62,227,210.89,227.49,209.26Z" style="fill:#263238"></path><path d="M229.25,207.57c2.86.07,2.52,5.78-.13,5.73S226.85,207.52,229.25,207.57Z" style="fill:#263238"></path><path d="M230.35,207.94c.48.35.94.95,1.53,1.05s1.26-.46,1.75-1c.05,0,.09,0,.09.07-.05,1.1-.53,2.2-1.72,2.29s-1.79-.92-2-2C230,208.09,230.16,207.8,230.35,207.94Z" style="fill:#263238"></path><path d="M216.7,208c0-.07-.15.07-.15.14-.06,1.78-.43,3.8-2.07,4.28-.06,0-.06.1,0,.1C216.46,212.33,216.92,209.65,216.7,208Z" style="fill:#263238"></path><path d="M215.24,206c-2.83-.41-3.44,5.29-.82,5.67S217.62,206.35,215.24,206Z" style="fill:#263238"></path><path d="M214,206.25c-.49.25-1,.75-1.53.73s-1-.69-1.36-1.32c0-.07-.08,0-.09.05-.15,1.08.09,2.26,1.11,2.58s1.74-.57,2.11-1.62C214.33,206.47,214.21,206.15,214,206.25Z" style="fill:#263238"></path><path d="M224.69,223.06c-.43.41-.86,1-1.51,1a4.52,4.52,0,0,1-1.9-.47.07.07,0,0,0-.08.09,2.37,2.37,0,0,0,2.24,1,1.88,1.88,0,0,0,1.42-1.55C224.89,223,224.75,223,224.69,223.06Z" style="fill:#263238"></path><path d="M217.74,216.14s-.55,2.62-.64,3.87c0,.11.29.19.71.25,0,0,0,0,.05,0a5.92,5.92,0,0,0,5.91-1.81c.1-.11-.05-.25-.17-.18a9,9,0,0,1-5.52,1.17c-.07-.35,1.09-4.45.9-4.48a10.68,10.68,0,0,0-2.88.44c1-5.48,2.85-10.77,3.75-16.24a.16.16,0,0,0-.31-.1c-2.35,5.39-3.62,11.68-4.79,17.32C214.59,217.08,217.23,216.32,217.74,216.14Z" style="fill:#263238"></path><path d="M218.24,219.8a7,7,0,0,0,2.54,2.5,3.07,3.07,0,0,0,1.9.34c1.43-.2,1.61-1.46,1.48-2.58a7.53,7.53,0,0,0-.42-1.73A9.12,9.12,0,0,1,218.24,219.8Z" style="fill:#263238"></path><path d="M220.78,222.3a3.07,3.07,0,0,0,1.9.34c1.43-.2,1.61-1.46,1.48-2.58A3.29,3.29,0,0,0,220.78,222.3Z" style="fill:#ff9cbd"></path><path d="M249.61,213.29c-6-.43-5.15-9.84-5.15-9.84s-6.72-1.17-6.31-12.13c0,0-3.8,6.33-13.08,6.91-2,.13,5-4.37,5-4.37s-9.38,6.14-23.63,2.27c-1-.27,3.44-15.08,15.22-19.36s21.77-.47,28.2,7.27c0,0,8,4.52,8.29,12.48S251.93,213.46,249.61,213.29Z" style="fill:#263238"></path><path d="M254.22,209.29a23.38,23.38,0,0,0,1.24-21.93c-5.48-12.22-25.14-17.07-38.11-8.42,0,0,22.3-4,29.84,6.06S254.22,209.29,254.22,209.29Z" style="fill:#EBEBD3"></path><path d="M246.23,215.8s5.82-8,9.47-6-.81,13.81-5.17,15.34a4.4,4.4,0,0,1-5.86-2.46Z" style="fill:#f7a9a0"></path><path d="M254.34,213.18c.07,0,.08.09,0,.12-3.06,1.17-4.7,4-5.87,6.86.92-1.1,2.16-1.7,3.65-.6.08.06,0,.18-.09.16a2.7,2.7,0,0,0-3,.9,13.44,13.44,0,0,0-1.46,2.38c-.15.27-.64.12-.53-.19l0-.07C247.07,218.87,250.17,213.5,254.34,213.18Z" style="fill:#263238"></path></g><g id="freepik--speech-bubble--inject-72"><path d="M280.29,179.69a24,24,0,0,1-4.1-13.22c0-16.75,18.4-30.33,41.07-30.33s41.05,13.58,41.05,30.33-18.38,30.32-41.05,30.32c-11,0-21-3.18-28.33-8.39L274.79,192Z" style="fill:#fff"></path><path d="M280.29,179.69a23.4,23.4,0,0,1-.93-25.33,32.33,32.33,0,0,1,9-9.81,42.92,42.92,0,0,1,11.91-6.06,54.83,54.83,0,0,1,13.12-2.62,56.5,56.5,0,0,1,13.37.68c1.09.22,2.21.37,3.29.66l3.24.87,3.17,1.12c1.06.38,2.06.89,3.09,1.33a40,40,0,0,1,11,7.63,28.09,28.09,0,0,1,7.1,11.38,23,23,0,0,1,.13,13.41,27.9,27.9,0,0,1-6.92,11.49A39.27,39.27,0,0,1,340,192.19a47.72,47.72,0,0,1-12.75,4.09,55.41,55.41,0,0,1-13.36.76,52.37,52.37,0,0,1-13.13-2.49,44.12,44.12,0,0,1-11.95-6l.19,0-14.17,3.48-.23.06.1-.21Zm0,0L274.89,192l-.13-.15,14.12-3.71.1,0,.09.06a48.41,48.41,0,0,0,24.85,8.11,54.83,54.83,0,0,0,13.17-.88,47.15,47.15,0,0,0,12.52-4,38.35,38.35,0,0,0,10.66-7.61,27,27,0,0,0,6.66-11.11,22.11,22.11,0,0,0-.16-12.84,27.19,27.19,0,0,0-6.83-11,39,39,0,0,0-10.74-7.48c-1-.43-2-.94-3-1.31l-3.1-1.11-3.19-.87c-1.06-.29-2.16-.43-3.23-.66a57,57,0,0,0-13.17-.72,54.4,54.4,0,0,0-13,2.47A42.24,42.24,0,0,0,288.74,145a32.53,32.53,0,0,0-9,9.54,23.68,23.68,0,0,0-3.42,12.61A24.07,24.07,0,0,0,280.29,179.69Z" style="fill:#263238"></path><path d="M301.12,161.33V172.6H299v-4.81h-5.12v4.81h-2.19V161.33h2.19v4.56H299v-4.56Z" style="fill:#263238"></path><path d="M311.3,170.68v1.92h-7.83V161.33h7.68v1.92h-5.49V166h4.75v1.78h-4.75v2.93Z" style="fill:#263238"></path><path d="M313,172.6V161.33h2.19v9.35H321v1.92Z" style="fill:#263238"></path><path d="M322.28,172.6V161.33h2.19v9.35h5.75v1.92Z" style="fill:#263238"></path><path d="M335.65,172.68a5.15,5.15,0,0,1-2.25-.48,5.41,5.41,0,0,1-1.73-1.29,5.89,5.89,0,0,1-1.51-3.94,5.69,5.69,0,0,1,.42-2.16,5.81,5.81,0,0,1,1.16-1.83,5.41,5.41,0,0,1,1.75-1.26,5.25,5.25,0,0,1,2.21-.47,5,5,0,0,1,2.23.5,5.73,5.73,0,0,1,1.72,1.31,6.08,6.08,0,0,1,1.51,3.94,5.6,5.6,0,0,1-.42,2.15A5.67,5.67,0,0,1,339.6,171a5.8,5.8,0,0,1-1.74,1.26A5.27,5.27,0,0,1,335.65,172.68ZM332.38,167a4.47,4.47,0,0,0,.22,1.41,3.78,3.78,0,0,0,.64,1.21,3.16,3.16,0,0,0,1,.84,3.16,3.16,0,0,0,2.79,0,3.18,3.18,0,0,0,1-.86,4.06,4.06,0,0,0,.64-1.22A4.6,4.6,0,0,0,339,167a4.43,4.43,0,0,0-.23-1.41,3.81,3.81,0,0,0-.65-1.21,3.07,3.07,0,0,0-1-.83,3.25,3.25,0,0,0-2.79,0,3.08,3.08,0,0,0-1,.86,3.87,3.87,0,0,0-.63,1.21A4.51,4.51,0,0,0,332.38,167Z" style="fill:#263238"></path><path d="M343.05,168.37v-7.15h2.12v7.15Zm0,4.23v-2.39h2.12v2.39Z" style="fill:#263238"></path></g></svg>